<?xml version="1.0" ?>
<!-- Uploaded to: SVG Repo, www.svgrepo.com, Generator: SVG Repo Mixer Tools -->
<svg width="800px" height="800px" viewBox="0 0 512 512" version="1.1" xml:space="preserve" xmlns="http://www.w3.org/2000/svg" xmlns:xlink="http://www.w3.org/1999/xlink">
<style type="text/css">
	.st0{display:none;}
	.st1{fill:#FFE2D2;}
	.st2{fill:#FFDE83;}
	.st3{fill:#F57070;}
	.st4{fill:#DBDBEF;}
	.st5{fill:#BCE2FF;}
	.st6{fill:#48446D;}
	.st7{fill:#6E78FF;}
	.st8{fill:#FFBE83;}
	.st9{fill:#F5949E;}
	.st10{fill:#D0FF67;}
	.st11{fill:#C69C6D;}
	.st12{fill:#C5BDD3;}
	.st13{fill:#FFE2B8;}
	.st14{fill:#F54670;}
</style>
<g class="st0" id="Layer_1"/>
<g id="Layer_2">
<g>
<path class="st7" d="M279.24,192.8c-0.37,0.07-0.74,0.16-1.12,0.25c-0.6,0.13-1.2,0.28-1.8,0.45c-0.23,0.06-0.47,0.13-0.7,0.21    c-0.04,0.01-0.08,0.02-0.12,0.03l-0.01,0.01c-0.47,0.13-0.92,0.27-1.33,0.42c-0.02,0-0.03,0-0.04,0.01    c-0.01,0-0.02,0.01-0.03,0.01c-0.02,0-0.04,0.01-0.06,0.02c-0.68,0.23-1.28,0.45-1.83,0.67l-0.05,0.02    c-0.35,0.13-0.7,0.26-1.03,0.41c-0.6,0.25-1.23,0.53-1.91,0.86c-0.27,0.12-0.56,0.26-0.9,0.43c-0.67,0.35-1.56,0.81-2.49,1.36    c-0.08,0.05-0.16,0.1-0.25,0.15c-0.21,0.13-0.42,0.26-0.66,0.41c-0.54,0.33-1.06,0.68-1.63,1.07c-0.28,0.19-0.57,0.4-0.84,0.59    l-9.98-9.97c-2.73-2.73-7.16-2.73-9.9,0c-2.73,2.73-2.73,7.17,0,9.9l9.99,9.98c-0.19,0.27-0.39,0.53-0.58,0.8    c-0.2,0.28-0.39,0.57-0.57,0.85l-0.07,0.11c-0.43,0.65-0.84,1.31-1.22,1.98c-0.14,0.25-0.28,0.5-0.42,0.75l-0.12,0.21    c-0.7,1.3-1.35,2.66-1.92,4.01c-0.12,0.28-0.23,0.57-0.34,0.85c-0.02,0.05-0.04,0.09-0.06,0.14c-0.06,0.17-0.13,0.35-0.18,0.48    c-0.19,0.51-0.38,1.03-0.55,1.55c-0.15,0.45-0.3,0.91-0.43,1.37v0.01c-0.02,0.05-0.04,0.11-0.05,0.16l-0.18,0.62    c-0.01,0.02-0.03,0.1-0.03,0.12c-0.11,0.38-0.21,0.76-0.3,1.13c-0.02,0.09-0.04,0.19-0.07,0.28c-0.04,0.17-0.08,0.34-0.12,0.52    c-0.06,0.28-0.12,0.56-0.18,0.85c-6.64-3.42-13.18-8.25-18.95-14.02c-17.13-17.13-20.54-35.85-8.69-47.69    c4.65-4.65,10.44-7.06,16.89-7.06c1,0,2.03,0.06,3.06,0.18c8.99,1.02,18.58,6.4,27.74,15.56    C270.98,179.62,275.82,186.15,279.24,192.8z"/>
<path class="st7" d="M358.67,306.32c-5.37,5.37-12.27,7.75-19.95,6.87c-8.99-1.02-18.58-6.4-27.74-15.56    c-5.66-5.66-10.27-11.83-13.72-18.35c-0.1-0.2-0.2-0.4-0.3-0.6c0.23-0.05,0.45-0.12,0.68-0.17c0.59-0.13,1.18-0.27,1.76-0.42    c0.37-0.1,0.74-0.21,1.1-0.31c0.59-0.17,1.16-0.36,1.74-0.56c0.35-0.11,0.7-0.23,1.04-0.36c0.62-0.22,1.23-0.47,1.84-0.73    c0.29-0.12,0.58-0.23,0.86-0.36c0.89-0.39,1.77-0.81,2.63-1.27c1.78-0.95,3.5-2.03,5.14-3.22l9.7,9.71    c1.37,1.36,3.16,2.05,4.95,2.05s3.58-0.69,4.95-2.05c2.73-2.74,2.73-7.17,0-9.9l-9.7-9.71c1.18-1.64,2.27-3.35,3.21-5.14    c0.01,0,0.01,0,0.01,0c0.46-0.89,0.9-1.78,1.3-2.7c0.14-0.3,0.25-0.61,0.38-0.92c0.25-0.61,0.51-1.22,0.73-1.85    c0.14-0.37,0.26-0.75,0.38-1.12c0.19-0.57,0.38-1.14,0.55-1.71c0.11-0.41,0.21-0.82,0.32-1.23c0.14-0.55,0.28-1.11,0.4-1.66    c0.03-0.15,0.08-0.29,0.11-0.44c0.18,0.09,0.35,0.18,0.53,0.27c0.03,0.01,0.05,0.03,0.08,0.04c6.51,3.42,12.68,8.03,18.34,13.71    c9.16,9.15,14.54,18.74,15.56,27.73C366.42,294.04,364.04,300.94,358.67,306.32z"/>
<path class="st2" d="M434.51,129.24L333.49,230.25c-0.16-0.08-0.33-0.14-0.49-0.21c-0.23-0.1-0.45-0.2-0.68-0.29    c-0.28-0.12-0.56-0.25-0.84-0.36c-0.04-0.31-0.1-0.61-0.15-0.91c-0.04-0.22-0.07-0.43-0.11-0.65c-0.1-0.55-0.21-1.11-0.33-1.66    c-0.02-0.07-0.03-0.14-0.05-0.22c-0.14-0.62-0.3-1.24-0.47-1.85c-0.05-0.19-0.11-0.38-0.16-0.57c-0.13-0.42-0.25-0.85-0.39-1.27    c-0.07-0.22-0.15-0.45-0.23-0.68c-0.12-0.38-0.26-0.76-0.4-1.13c-0.08-0.23-0.17-0.47-0.26-0.7c-0.15-0.37-0.3-0.74-0.46-1.11    c-0.09-0.22-0.18-0.44-0.28-0.67c-0.17-0.38-0.35-0.77-0.54-1.15c-0.09-0.19-0.18-0.39-0.27-0.58c-0.26-0.52-0.53-1.05-0.82-1.56    c-0.02-0.04-0.04-0.09-0.06-0.13c-0.31-0.55-0.63-1.1-0.96-1.64c-0.11-0.18-0.22-0.35-0.33-0.52c-0.23-0.37-0.46-0.73-0.71-1.09    c-0.13-0.21-0.27-0.4-0.41-0.6c-0.23-0.33-0.46-0.66-0.7-0.98c-0.15-0.2-0.3-0.41-0.46-0.61c-0.24-0.31-0.49-0.63-0.74-0.94    c-0.16-0.19-0.31-0.38-0.47-0.57c-0.28-0.34-0.56-0.66-0.85-0.99c-0.14-0.15-0.28-0.31-0.42-0.47c-0.44-0.48-0.88-0.94-1.34-1.4    c-0.46-0.46-0.93-0.91-1.4-1.34c-0.16-0.15-0.32-0.28-0.48-0.42c-0.33-0.29-0.65-0.58-0.98-0.86c-0.19-0.16-0.39-0.31-0.58-0.47    c-0.31-0.25-0.62-0.5-0.94-0.74c-0.2-0.15-0.4-0.31-0.61-0.46c-0.32-0.23-0.64-0.46-0.96-0.69c-0.21-0.14-0.41-0.29-0.62-0.43    c-0.35-0.23-0.69-0.45-1.04-0.67c-0.19-0.12-0.38-0.25-0.58-0.37c-0.49-0.29-0.98-0.58-1.48-0.86c-0.17-0.09-0.33-0.18-0.49-0.27    c-0.44-0.23-0.88-0.46-1.32-0.68c-0.24-0.12-0.49-0.24-0.73-0.35c-0.33-0.16-0.65-0.31-0.98-0.45c-0.27-0.13-0.55-0.24-0.83-0.36    c-0.3-0.13-0.6-0.25-0.91-0.37c-0.29-0.12-0.58-0.23-0.88-0.34c-0.29-0.11-0.59-0.21-0.88-0.31c-0.31-0.11-0.62-0.21-0.93-0.31    c-0.29-0.1-0.58-0.18-0.87-0.27c-0.32-0.09-0.63-0.19-0.95-0.28c-0.29-0.08-0.58-0.14-0.87-0.22c-0.6-0.15-1.21-0.29-1.82-0.41    c-0.29-0.06-0.59-0.13-0.88-0.18c-0.33-0.06-0.65-0.11-0.98-0.16c-0.22-0.04-0.45-0.08-0.67-0.12c-0.06-0.13-0.11-0.26-0.17-0.4    c0,0,0-0.01-0.01-0.01c-0.01-0.04-0.03-0.08-0.04-0.12l98.06-98.07c1.09,0.51,2.16,1.03,3.22,1.57c0.19,0.1,0.37,0.2,0.56,0.3    c0.95,0.5,1.9,1,2.83,1.52c0.4,0.22,0.78,0.45,1.18,0.67c0.72,0.42,1.44,0.84,2.15,1.27c0.43,0.26,0.85,0.52,1.28,0.79    c0.67,0.42,1.34,0.84,2,1.28c0.42,0.27,0.84,0.55,1.26,0.83c0.67,0.46,1.34,0.93,2.01,1.4c0.38,0.27,0.76,0.53,1.13,0.8    c0.81,0.59,1.6,1.19,2.4,1.81c0.21,0.16,0.43,0.32,0.65,0.49c0.99,0.78,1.97,1.58,2.93,2.39c0.3,0.25,0.58,0.51,0.88,0.76    c0.67,0.58,1.34,1.17,2,1.76c0.35,0.33,0.71,0.66,1.06,0.99c0.58,0.54,1.16,1.09,1.74,1.65c0.36,0.35,0.72,0.71,1.07,1.07    c0.57,0.56,1.12,1.13,1.67,1.71c0.34,0.35,0.68,0.7,1.01,1.06c0.59,0.64,1.18,1.29,1.75,1.95c0.27,0.3,0.55,0.6,0.82,0.91    c0.83,0.96,1.64,1.94,2.44,2.93c0.13,0.16,0.25,0.33,0.38,0.49c0.67,0.84,1.33,1.69,1.98,2.56c0.27,0.36,0.54,0.73,0.8,1.1    C433.84,128.28,434.17,128.76,434.51,129.24z"/>
<path class="st3" d="M378.03,88.22l-90.72,90.71c-3.45-5.27-7.57-10.35-12.2-14.98c-11.42-11.42-23.89-18.19-36.06-19.57    c-11.89-1.36-23.05,2.51-31.43,10.89c-14.63,14.63-17.62,41.17,8.69,67.49c4.63,4.63,9.71,8.74,14.98,12.19L125.75,340.5    c-44.47-51.88-67.33-100.64-67.96-145.02c-0.63-44.28,25.35-83.96,66.18-101.1c3.56-1.49,5.24-5.6,3.74-9.16    c-0.16-0.38-0.36-0.74-0.58-1.08c-0.09-0.14-0.18-0.29-0.29-0.43c-0.11-0.15-0.24-0.27-0.36-0.41c0.07-0.02,0.13-0.04,0.21-0.07    c4.94-1.54,12.9-3.62,22.74-4.79c0.03,0,0.06,0,0.09-0.01c-0.01,0.17-0.03,0.34-0.03,0.51v0.09c0,0.14,0.01,0.27,0.02,0.41    c0.02,0.32,0.05,0.64,0.12,0.95c0.09,0.45,0.22,0.89,0.39,1.31c0.18,0.43,0.4,0.83,0.65,1.21c0.25,0.39,0.55,0.74,0.87,1.07    c0.32,0.32,0.68,0.61,1.06,0.87c0.38,0.25,0.79,0.46,1.21,0.64c0.42,0.17,0.86,0.31,1.31,0.4c0.45,0.09,0.91,0.14,1.37,0.14    c0.45,0,0.91-0.05,1.37-0.14c0.44-0.09,0.88-0.23,1.31-0.4c0.42-0.18,0.82-0.39,1.2-0.64c0.39-0.26,0.74-0.55,1.07-0.87    c0.32-0.33,0.61-0.68,0.87-1.07c0.25-0.38,0.47-0.78,0.64-1.21c0.18-0.42,0.31-0.86,0.4-1.31c0.09-0.45,0.14-0.91,0.14-1.36    c0-0.16-0.01-0.32-0.02-0.48c-0.01-0.17-0.03-0.34-0.06-0.5c-0.02-0.17-0.07-0.33-0.11-0.5h0.11c6.24-0.05,12.48,0.34,18.54,1.2    c0.03,0.01,0.07,0.02,0.1,0.02c-0.06,0.16-0.12,0.32-0.17,0.48c-0.05,0.16-0.09,0.32-0.13,0.49c-0.01,0.06-0.03,0.11-0.04,0.17    c-0.77,3.79,1.68,7.48,5.47,8.25c24.4,4.95,46.56,18.42,62.38,37.95c1.33,1.64,3.33,2.6,5.44,2.6h0.1    c2.14-0.04,4.16-1.05,5.46-2.75c20.29-26.53,50.98-42.01,84.21-42.47C356.17,83.33,367.32,84.92,378.03,88.22z"/>
<path class="st3" d="M456.92,160.98c0,0,0,0,0,0.01c-0.16,0.04-0.32,0.08-0.48,0.13c-0.16,0.06-0.31,0.12-0.47,0.19    c-2.98,1.3-4.74,4.54-4.05,7.85c1.42,6.77,2.19,13.74,2.29,20.72c0.87,61.52-40.29,131.91-122.33,209.22l-0.11,0.09    c-0.27,0.22-0.54,0.45-0.8,0.69c-0.74,0.69-1.56,1.36-2.41,2.07l-1.29,1.08c-1.6,1.36-3.12,2.64-4.66,3.8    c-1.09,0.82-2.23,1.61-3.45,2.44l-0.62,0.42c-1.47,1-3.19,2.16-4.9,3.2c-1.29,0.78-2.64,1.54-4.17,2.37    c-1.85,1.02-3.61,1.92-5.41,2.76c-1.49,0.71-2.81,1.31-4.02,1.83c-1.79,0.76-3.68,1.49-5.97,2.31l-0.46,0.16    c-1.18,0.42-2.29,0.82-3.43,1.17c-2.19,0.7-4.52,1.29-6.5,1.79c-0.44,0.1-0.87,0.21-1.31,0.32c-0.75,0.2-1.52,0.39-2.29,0.56    c-2.48,0.52-5.03,0.9-7.38,1.23c-0.52,0.07-1.03,0.15-1.55,0.24c-0.47,0.08-0.94,0.16-1.4,0.21c-3.52,0.39-7.01,0.62-10.37,0.68    h-0.09c-3.26,0.04-6.67-0.09-10.45-0.39c-0.47-0.04-0.94-0.11-1.41-0.17c-0.49-0.07-0.98-0.13-1.43-0.18    c-2.4-0.27-4.98-0.58-7.45-1.02c-0.73-0.14-1.45-0.3-2.17-0.47c-0.49-0.11-0.99-0.22-1.42-0.31c-2.05-0.45-4.41-0.98-6.67-1.62    c-0.95-0.27-1.88-0.57-2.82-0.88l-1.02-0.33c-2.33-0.76-4.26-1.44-6.1-2.17c-1.16-0.45-2.4-0.97-4.04-1.69    c-1.7-0.74-3.51-1.61-5.51-2.62c-1.25-0.64-2.72-1.41-4.18-2.24c-1.77-0.99-3.53-2.11-5.07-3.1c-1.54-0.98-2.82-1.8-4.09-2.71    c-1.49-1.06-2.98-2.24-4.55-3.49l-1.36-1.07c-0.95-0.75-1.84-1.45-2.7-2.21c-0.24-0.2-0.49-0.4-0.75-0.59l-0.11-0.09    c-0.64-0.57-1.27-1.14-1.91-1.71l86.99-87c2.73-2.73,2.73-7.16,0-9.9c-0.04-0.04-0.09-0.08-0.13-0.12l14.76-15.15    c3.98,7.2,9.15,14.01,15.38,20.24c11.42,11.42,23.89,18.19,36.05,19.57c1.56,0.18,3.11,0.27,4.64,0.27    c10.13,0,19.52-3.87,26.8-11.15c8.38-8.38,12.24-19.55,10.89-31.44c-1.38-12.17-8.15-24.64-19.57-36.05    c-4.31-4.32-8.91-8.12-13.71-11.38l100.09-100.07l0.74-0.74c0.03,0.05,0.05,0.09,0.08,0.14    C449.99,142.39,454.05,151.23,456.92,160.98z"/>
<path class="st12" d="M317.81,238.57c-0.04,0.43-0.11,0.86-0.17,1.29c-0.03,0.22-0.04,0.43-0.08,0.64    c-0.51,3.2-1.55,6.31-3.07,9.19c-1.38,2.61-3.16,5.02-5.29,7.15c-2.13,2.12-4.53,3.91-7.14,5.29c-4.61,2.43-9.81,3.61-15.03,3.43    c-7.59-0.28-14.71-3.37-20.04-8.7c-0.33-0.34-0.66-0.68-0.98-1.02c-4.74-5.22-7.47-11.93-7.74-19.09    c-0.01-0.35-0.01-0.7-0.01-1.04c0-0.44,0.01-0.88,0.03-1.31v-0.16c0.03-0.42,0.06-0.84,0.1-1.27c0-0.04,0.01-0.08,0.01-0.12v-0.04    c0.03-0.37,0.08-0.73,0.13-1.11c0.07-0.56,0.17-1.11,0.27-1.65c0.06-0.32,0.13-0.63,0.2-0.94c0.01-0.05,0.02-0.1,0.03-0.14    l0.02-0.11c0.02-0.07,0.04-0.15,0.06-0.23c0.07-0.3,0.15-0.6,0.23-0.88l0.1-0.33c0.02-0.08,0.05-0.16,0.07-0.24    c0.09-0.31,0.18-0.6,0.28-0.9c0.02-0.05,0.03-0.09,0.05-0.14c0.1-0.33,0.23-0.65,0.37-1.04l0.02-0.04    c0.03-0.09,0.07-0.17,0.1-0.26c0.07-0.18,0.14-0.36,0.23-0.58c0.39-0.93,0.83-1.85,1.28-2.68l0.12-0.21    c0.08-0.15,0.16-0.3,0.25-0.45c0.02-0.04,0.04-0.08,0.07-0.12c0.23-0.4,0.47-0.8,0.75-1.22l0.11-0.18    c0.07-0.1,0.14-0.22,0.22-0.32c0.04-0.06,0.08-0.11,0.11-0.17c1.03-1.49,2.21-2.92,3.52-4.23c1.1-1.1,2.31-2.14,3.63-3.1    c0.21-0.15,0.43-0.31,0.59-0.42c0.36-0.24,0.72-0.48,1.08-0.71c0.2-0.12,0.39-0.24,0.59-0.35c0.03-0.02,0.07-0.04,0.1-0.06    c0.47-0.28,1-0.57,1.64-0.9c0.15-0.08,0.3-0.15,0.45-0.22c0.05-0.02,0.1-0.05,0.15-0.07c0.43-0.2,0.85-0.4,1.28-0.57    c0.11-0.05,0.19-0.08,0.3-0.13c0.1-0.04,0.2-0.08,0.3-0.12l0.19-0.07c0.45-0.18,0.9-0.34,1.34-0.49c0.26-0.09,0.53-0.17,0.79-0.25    c0.06-0.01,0.12-0.03,0.18-0.05c0.04-0.01,0.07-0.02,0.11-0.03c0.09-0.03,0.18-0.06,0.26-0.08c0.06-0.02,0.12-0.04,0.18-0.05    c0.35-0.1,0.7-0.19,1.05-0.26c0.01-0.01,0.1-0.03,0.12-0.03c0.35-0.09,0.71-0.17,1.03-0.23c0.56-0.11,1.13-0.21,1.74-0.28    c0.36-0.05,0.72-0.1,1.08-0.13h0.04c0.04,0,0.08-0.01,0.12-0.01c0.42-0.04,0.84-0.07,1.26-0.1h0.18c0.43-0.03,0.86-0.03,1.3-0.03    c0.33,0,0.66,0,0.99,0.01h0.1c7.11,0.26,13.81,3,19.03,7.75c0.34,0.32,0.68,0.64,1.02,0.98c0.67,0.66,1.3,1.36,1.9,2.08    c3.57,4.32,5.85,9.55,6.58,15.13c0.12,0.93,0.2,1.87,0.23,2.82C317.97,235.97,317.93,237.28,317.81,238.57z"/>
<path class="st6" d="M468.21,189.69c-0.11-7.88-0.98-15.76-2.58-23.4c-0.8-3.79-4.5-6.21-8.29-5.42    c-0.14,0.03-0.28,0.08-0.42,0.12c-0.16,0.04-0.32,0.08-0.48,0.13c-0.16,0.06-0.31,0.12-0.47,0.19c-2.98,1.3-4.74,4.54-4.05,7.85    c1.42,6.77,2.19,13.74,2.29,20.72c0.87,61.52-40.29,131.91-122.33,209.22l-0.11,0.09c-0.27,0.22-0.54,0.45-0.8,0.69    c-0.74,0.69-1.56,1.36-2.41,2.07l-1.29,1.08c-1.6,1.36-3.12,2.64-4.66,3.8c-1.09,0.82-2.23,1.61-3.45,2.44l-0.62,0.42    c-1.47,1-3.19,2.16-4.9,3.2c-1.29,0.78-2.64,1.54-4.17,2.37c-1.85,1.02-3.61,1.92-5.41,2.76c-1.49,0.71-2.81,1.31-4.02,1.83    c-1.79,0.76-3.68,1.49-5.97,2.31l-0.46,0.16c-1.18,0.42-2.29,0.82-3.43,1.17c-2.19,0.7-4.52,1.29-6.5,1.79    c-0.44,0.1-0.87,0.21-1.31,0.32c-0.75,0.2-1.52,0.39-2.29,0.56c-2.48,0.52-5.03,0.9-7.38,1.23c-0.52,0.07-1.03,0.15-1.55,0.24    c-0.47,0.08-0.94,0.16-1.4,0.21c-3.52,0.39-7.01,0.62-10.37,0.68h-0.09c-3.26,0.04-6.67-0.09-10.45-0.39    c-0.47-0.04-0.94-0.11-1.41-0.17c-0.49-0.07-0.98-0.13-1.43-0.18c-2.4-0.27-4.98-0.58-7.45-1.02c-0.73-0.14-1.45-0.3-2.17-0.47    c-0.49-0.11-0.99-0.22-1.42-0.31c-2.05-0.45-4.41-0.98-6.67-1.62c-0.95-0.27-1.88-0.57-2.82-0.88l-1.02-0.33    c-2.33-0.76-4.26-1.44-6.1-2.17c-1.16-0.45-2.4-0.97-4.04-1.69c-1.7-0.74-3.51-1.61-5.51-2.62c-1.25-0.64-2.72-1.41-4.18-2.24    c-1.77-0.99-3.53-2.11-5.07-3.1c-1.54-0.98-2.82-1.8-4.09-2.71c-1.49-1.06-2.98-2.24-4.55-3.49l-1.36-1.07    c-0.95-0.75-1.84-1.45-2.7-2.21c-0.24-0.2-0.49-0.4-0.75-0.59l-0.11-0.09c-0.64-0.57-1.27-1.14-1.91-1.71l86.99-87    c2.73-2.73,2.73-7.16,0-9.9c-0.04-0.04-0.09-0.08-0.13-0.12c-0.12-0.11-0.24-0.23-0.37-0.33c-0.13-0.11-0.28-0.19-0.42-0.29    c-2.73-1.93-6.53-1.71-8.98,0.74l-87.44,87.45c-0.34-0.31-0.68-0.62-1.01-0.93c-0.65-0.61-1.3-1.22-1.95-1.83    c-1.37-1.28-2.72-2.57-4.07-3.85c-0.68-0.65-1.36-1.31-2.04-1.96c-1.38-1.33-2.75-2.66-4.11-3.99c-0.56-0.55-1.13-1.09-1.68-1.64    c-1.88-1.85-3.74-3.7-5.57-5.54c-0.29-0.29-0.57-0.58-0.86-0.88c-1.54-1.56-3.07-3.12-4.58-4.68c-0.59-0.61-1.18-1.23-1.77-1.84    c-1.21-1.26-2.4-2.52-3.58-3.77c-0.62-0.65-1.22-1.3-1.83-1.94c-1.21-1.3-2.41-2.6-3.6-3.9c-0.5-0.54-1.01-1.09-1.5-1.63    c-0.19-0.2-0.37-0.41-0.55-0.61l109.15-109.16c0.04,0.02,0.07,0.03,0.11,0.05c0.01,0,0.02,0.01,0.04,0.01    c0.13,0.06,0.26,0.11,0.39,0.16c0.04,0.32,0.1,0.63,0.15,0.94c0.04,0.2,0.07,0.41,0.1,0.62c0.11,0.57,0.22,1.14,0.35,1.71    c0.01,0.06,0.02,0.12,0.04,0.17c0.14,0.63,0.3,1.25,0.47,1.87c0.05,0.18,0.11,0.37,0.16,0.55c0.12,0.43,0.25,0.86,0.39,1.28    c0.07,0.23,0.15,0.45,0.22,0.68c0.13,0.38,0.27,0.76,0.41,1.14c0.08,0.23,0.17,0.46,0.26,0.69c0.15,0.38,0.3,0.75,0.45,1.11    c0.1,0.23,0.19,0.45,0.29,0.67c0.17,0.39,0.35,0.78,0.54,1.16c0.09,0.19,0.18,0.39,0.27,0.58c0.26,0.52,0.53,1.04,0.81,1.56    c0.03,0.04,0.05,0.09,0.07,0.13c0.31,0.55,0.63,1.1,0.96,1.64c0.11,0.18,0.22,0.35,0.33,0.52c0.23,0.37,0.46,0.73,0.71,1.1    c0.13,0.2,0.27,0.4,0.41,0.6c0.23,0.32,0.46,0.65,0.7,0.97c0.15,0.21,0.3,0.41,0.46,0.61c0.24,0.32,0.49,0.63,0.74,0.94    c0.15,0.19,0.31,0.39,0.47,0.58c0.28,0.33,0.56,0.65,0.85,0.98c0.14,0.16,0.28,0.32,0.42,0.47c0.44,0.48,0.88,0.95,1.34,1.41    c0.46,0.46,0.93,0.9,1.4,1.34c0.16,0.14,0.31,0.27,0.47,0.41c0.32,0.29,0.66,0.58,0.99,0.86c0.19,0.16,0.37,0.3,0.56,0.45    c0.32,0.26,0.64,0.52,0.96,0.76c0.2,0.15,0.39,0.3,0.59,0.45c0.33,0.24,0.66,0.48,1,0.71c0.19,0.14,0.38,0.27,0.58,0.4    c0.37,0.25,0.75,0.5,1.13,0.74c0.16,0.09,0.32,0.2,0.48,0.29c1.09,0.67,2.21,1.29,3.35,1.86c0.17,0.08,0.35,0.16,0.52,0.24    c0.4,0.19,0.81,0.38,1.22,0.57c0.21,0.09,0.41,0.17,0.62,0.26c0.39,0.16,0.78,0.32,1.17,0.48c0.21,0.08,0.43,0.16,0.64,0.24    c0.4,0.15,0.8,0.29,1.2,0.43c0.21,0.07,0.42,0.14,0.62,0.21c0.45,0.14,0.91,0.28,1.36,0.41c0.16,0.04,0.32,0.09,0.48,0.14    c0.63,0.17,1.26,0.33,1.89,0.47c0.01,0,0.02,0.01,0.03,0.01c0.61,0.14,1.23,0.26,1.85,0.37c0.19,0.04,0.39,0.07,0.58,0.1    c0.32,0.05,0.64,0.11,0.96,0.16c0.07,0.16,0.15,0.33,0.22,0.49c0.3,0.73,0.63,1.46,0.96,2.18c0.14,0.32,0.28,0.64,0.43,0.95    c0.49,1.04,1,2.07,1.54,3.09c0.1,0.18,0.2,0.37,0.3,0.55c0.08,0.15,0.16,0.3,0.25,0.46c0.08,0.15,0.17,0.3,0.26,0.45    c3.98,7.2,9.15,14.01,15.38,20.24c11.42,11.42,23.89,18.19,36.05,19.57c1.56,0.18,3.11,0.27,4.64,0.27    c10.13,0,19.52-3.87,26.8-11.15c8.38-8.38,12.24-19.55,10.89-31.44c-1.38-12.17-8.15-24.64-19.57-36.05    c-4.31-4.32-8.91-8.12-13.71-11.38l100.09-100.07l2.21-2.21c0.02-0.02,0.03-0.04,0.05-0.06c0.26-0.27,0.51-0.56,0.72-0.86    c0-0.01,0.01-0.01,0.01-0.01c0.21-0.3,0.38-0.61,0.54-0.93c0.03-0.05,0.05-0.1,0.07-0.15c0.15-0.31,0.26-0.62,0.36-0.95    c0.02-0.06,0.04-0.12,0.05-0.18c0.09-0.33,0.16-0.66,0.2-1c0-0.04,0-0.08,0.01-0.12c0.03-0.34,0.04-0.68,0.03-1.02v-0.08    c-0.02-0.34-0.08-0.69-0.15-1.04c-0.01-0.05-0.02-0.11-0.03-0.16c-0.08-0.34-0.19-0.67-0.32-0.99c-0.02-0.06-0.04-0.11-0.07-0.16    c-0.14-0.33-0.3-0.66-0.5-0.98c-2.61-4.13-5.44-8.06-8.47-11.81c-12.63-15.59-28.83-27.78-47.52-35.63h-0.01    c-15.49-6.51-31.93-9.71-48.88-9.45c-34.7,0.48-66.95,15.45-89.73,41.37c-17.32-18.57-40.07-31.39-64.88-36.42    c-3.39-0.69-6.7,1.2-7.91,4.33c-0.06,0.16-0.12,0.32-0.17,0.48c-0.05,0.16-0.09,0.32-0.13,0.49c-0.01,0.06-0.03,0.11-0.04,0.17    c-0.77,3.79,1.68,7.48,5.47,8.25c24.4,4.95,46.56,18.42,62.38,37.95c1.33,1.64,3.33,2.6,5.44,2.6h0.1    c2.14-0.04,4.16-1.05,5.46-2.75c20.29-26.53,50.98-42.01,84.21-42.47c11.4-0.16,22.55,1.43,33.26,4.73l-90.72,90.71    c-3.45-5.27-7.57-10.35-12.2-14.98c-11.42-11.42-23.89-18.19-36.06-19.57c-11.89-1.36-23.05,2.51-31.43,10.89    c-14.63,14.63-17.62,41.17,8.69,67.49c4.63,4.63,9.71,8.74,14.98,12.19L125.75,340.5c-44.47-51.88-67.33-100.64-67.96-145.02    c-0.63-44.28,25.35-83.96,66.18-101.1c3.56-1.49,5.24-5.6,3.74-9.16c-0.16-0.38-0.36-0.74-0.58-1.08    c-0.09-0.14-0.18-0.29-0.29-0.43c-0.11-0.15-0.24-0.27-0.36-0.41c-1.94-2.18-5.09-3.02-7.93-1.83    c-22.16,9.3-40.95,24.83-54.34,44.89c-13.71,20.56-20.77,44.52-20.42,69.32c0.7,49.42,26.39,103.16,76.35,159.71    c1.79,2.03,3.62,4.06,5.47,6.09c13,14.26,27.63,28.83,43.59,43.41h0.01c2.46,2.25,4.97,4.5,7.5,6.76c0.29,0.27,0.6,0.51,0.91,0.74    l0.12,0.09c1.07,0.94,2.12,1.77,3.15,2.57l1.31,1.05c1.65,1.31,3.36,2.67,5.15,3.93c1.53,1.09,3.03,2.06,4.65,3.09    c1.67,1.07,3.66,2.34,5.73,3.5c1.66,0.94,3.29,1.8,4.7,2.52c2.27,1.15,4.32,2.13,6.26,2.97c1.81,0.8,3.23,1.39,4.56,1.91    c2.05,0.81,4.29,1.6,6.9,2.46l1.01,0.32c1.07,0.35,2.18,0.71,3.33,1.03c2.61,0.74,5.21,1.33,7.51,1.83    c0.43,0.1,0.87,0.2,1.31,0.29c0.88,0.2,1.77,0.4,2.72,0.58c2.92,0.52,5.77,0.86,8.44,1.17c0.36,0.04,0.72,0.08,1.08,0.13    c0.73,0.1,1.47,0.2,2.18,0.25c3.66,0.3,7.05,0.45,10.29,0.45c0.48,0,0.96-0.01,1.43-0.01h0.11c3.81-0.07,7.76-0.32,11.77-0.77    c0.7-0.08,1.4-0.19,2.1-0.31c0.38-0.06,0.76-0.12,1.18-0.18c2.63-0.37,5.47-0.8,8.35-1.4c0.97-0.21,1.92-0.45,2.88-0.69    c0.38-0.1,0.77-0.2,1.19-0.3c2.22-0.55,4.81-1.21,7.34-2.02c1.38-0.42,2.7-0.9,3.97-1.35l0.44-0.16c2.51-0.9,4.71-1.75,6.74-2.61    c1.4-0.6,2.89-1.27,4.54-2.05c2.04-0.97,4.05-1.99,6.11-3.13c1.68-0.9,3.2-1.77,4.71-2.68c2.02-1.23,3.94-2.52,5.55-3.62    l0.63-0.42c1.29-0.89,2.63-1.8,3.97-2.81c1.87-1.41,3.61-2.89,5.3-4.32c0.39-0.33,0.78-0.65,1.17-0.98    c0.97-0.81,1.98-1.64,2.99-2.58c0.02-0.01,0.04-0.03,0.05-0.04l0.12-0.1c0.25-0.2,0.49-0.41,0.76-0.66    C426.48,329.21,469.14,255.31,468.21,189.69z M349.99,258.63c9.16,9.15,14.54,18.74,15.56,27.73c0.87,7.68-1.51,14.58-6.88,19.96    c-5.37,5.37-12.27,7.75-19.95,6.87c-8.99-1.02-18.58-6.4-27.74-15.56c-5.66-5.66-10.27-11.83-13.72-18.35    c-0.1-0.2-0.2-0.4-0.3-0.6c0.23-0.05,0.45-0.12,0.68-0.17c0.59-0.13,1.18-0.27,1.76-0.42c0.37-0.1,0.74-0.21,1.1-0.31    c0.59-0.17,1.16-0.36,1.74-0.56c0.35-0.11,0.7-0.23,1.04-0.36c0.62-0.22,1.23-0.47,1.84-0.73c0.29-0.12,0.58-0.23,0.86-0.36    c0.89-0.39,1.77-0.81,2.63-1.27c1.78-0.95,3.5-2.03,5.14-3.22l9.7,9.71c1.37,1.36,3.16,2.05,4.95,2.05s3.58-0.69,4.95-2.05    c2.73-2.74,2.73-7.17,0-9.9l-9.7-9.71c1.18-1.64,2.27-3.35,3.21-5.14c0.01,0,0.01,0,0.01,0c0.46-0.89,0.9-1.78,1.3-2.7    c0.14-0.3,0.25-0.61,0.38-0.92c0.25-0.61,0.51-1.22,0.73-1.85c0.14-0.37,0.26-0.75,0.38-1.12c0.19-0.57,0.38-1.14,0.55-1.71    c0.11-0.41,0.21-0.82,0.32-1.23c0.14-0.55,0.28-1.11,0.4-1.66c0.03-0.15,0.08-0.29,0.11-0.44c0.18,0.09,0.35,0.18,0.53,0.27    c0.03,0.01,0.05,0.03,0.08,0.04C338.16,248.34,344.33,252.95,349.99,258.63z M392.29,93.75c1.09,0.51,2.16,1.03,3.22,1.57    c0.19,0.1,0.37,0.2,0.56,0.3c0.95,0.5,1.9,1,2.83,1.52c0.4,0.22,0.78,0.45,1.18,0.67c0.72,0.42,1.44,0.84,2.15,1.27    c0.43,0.26,0.85,0.52,1.28,0.79c0.67,0.42,1.34,0.84,2,1.28c0.42,0.27,0.84,0.55,1.26,0.83c0.67,0.46,1.34,0.93,2.01,1.4    c0.38,0.27,0.76,0.53,1.13,0.8c0.81,0.59,1.6,1.19,2.4,1.81c0.21,0.16,0.43,0.32,0.65,0.49c0.99,0.78,1.97,1.58,2.93,2.39    c0.3,0.25,0.58,0.51,0.88,0.76c0.67,0.58,1.34,1.17,2,1.76c0.35,0.33,0.71,0.66,1.06,0.99c0.58,0.54,1.16,1.09,1.74,1.65    c0.36,0.35,0.72,0.71,1.07,1.07c0.57,0.56,1.12,1.13,1.67,1.71c0.34,0.35,0.68,0.7,1.01,1.06c0.59,0.64,1.18,1.29,1.75,1.95    c0.27,0.3,0.55,0.6,0.82,0.91c0.83,0.96,1.64,1.94,2.44,2.93c0.13,0.16,0.25,0.33,0.38,0.49c0.67,0.84,1.33,1.69,1.98,2.56    c0.27,0.36,0.54,0.73,0.8,1.1c0.35,0.47,0.68,0.95,1.02,1.43L333.49,230.25c-0.16-0.08-0.33-0.14-0.49-0.21    c-0.23-0.1-0.45-0.2-0.68-0.29c-0.28-0.12-0.56-0.25-0.84-0.36c-0.04-0.31-0.1-0.61-0.15-0.91c-0.04-0.22-0.07-0.43-0.11-0.65    c-0.1-0.55-0.21-1.11-0.33-1.66c-0.02-0.07-0.03-0.14-0.05-0.22c-0.14-0.62-0.3-1.24-0.47-1.85c-0.05-0.19-0.11-0.38-0.16-0.57    c-0.13-0.42-0.25-0.85-0.39-1.27c-0.07-0.22-0.15-0.45-0.23-0.68c-0.12-0.38-0.26-0.76-0.4-1.13c-0.08-0.23-0.17-0.47-0.26-0.7    c-0.15-0.37-0.3-0.74-0.46-1.11c-0.09-0.22-0.18-0.44-0.28-0.67c-0.17-0.38-0.35-0.77-0.54-1.15c-0.09-0.19-0.18-0.39-0.27-0.58    c-0.26-0.52-0.53-1.05-0.82-1.56c-0.02-0.04-0.04-0.09-0.06-0.13c-0.31-0.55-0.63-1.1-0.96-1.64c-0.11-0.18-0.22-0.35-0.33-0.52    c-0.23-0.37-0.46-0.73-0.71-1.09c-0.13-0.21-0.27-0.4-0.41-0.6c-0.23-0.33-0.46-0.66-0.7-0.98c-0.15-0.2-0.3-0.41-0.46-0.61    c-0.24-0.31-0.49-0.63-0.74-0.94c-0.16-0.19-0.31-0.38-0.47-0.57c-0.28-0.34-0.56-0.66-0.85-0.99c-0.14-0.15-0.28-0.31-0.42-0.47    c-0.44-0.48-0.88-0.94-1.34-1.4c-0.46-0.46-0.93-0.91-1.4-1.34c-0.16-0.15-0.32-0.28-0.48-0.42c-0.33-0.29-0.65-0.58-0.98-0.86    c-0.19-0.16-0.39-0.31-0.58-0.47c-0.31-0.25-0.62-0.5-0.94-0.74c-0.2-0.15-0.4-0.31-0.61-0.46c-0.32-0.23-0.64-0.46-0.96-0.69    c-0.21-0.14-0.41-0.29-0.62-0.43c-0.35-0.23-0.69-0.45-1.04-0.67c-0.19-0.12-0.38-0.25-0.58-0.37c-0.49-0.29-0.98-0.58-1.48-0.86    c-0.17-0.09-0.33-0.18-0.49-0.27c-0.44-0.23-0.88-0.46-1.32-0.68c-0.24-0.12-0.49-0.24-0.73-0.35c-0.33-0.16-0.65-0.31-0.98-0.45    c-0.27-0.13-0.55-0.24-0.83-0.36c-0.3-0.13-0.6-0.25-0.91-0.37c-0.29-0.12-0.58-0.23-0.88-0.34c-0.29-0.11-0.59-0.21-0.88-0.31    c-0.31-0.11-0.62-0.21-0.93-0.31c-0.29-0.1-0.58-0.18-0.87-0.27c-0.32-0.09-0.63-0.19-0.95-0.28c-0.29-0.08-0.58-0.14-0.87-0.22    c-0.6-0.15-1.21-0.29-1.82-0.41c-0.29-0.06-0.59-0.13-0.88-0.18c-0.33-0.06-0.65-0.11-0.98-0.16c-0.22-0.04-0.45-0.08-0.67-0.12    c-0.06-0.13-0.11-0.26-0.17-0.4c0,0,0-0.01-0.01-0.01c-0.01-0.04-0.03-0.08-0.04-0.12L392.29,93.75z M279.6,207.13    c0.04-0.01,0.07-0.02,0.11-0.03c0.09-0.03,0.18-0.06,0.26-0.08c0.06-0.02,0.12-0.04,0.18-0.05c0.35-0.1,0.7-0.19,1.05-0.26    c0.01-0.01,0.1-0.03,0.12-0.03c0.35-0.09,0.71-0.17,1.03-0.23c0.56-0.11,1.13-0.21,1.74-0.28c0.36-0.05,0.72-0.1,1.08-0.13h0.04    c0.04,0,0.08-0.01,0.12-0.01c0.42-0.04,0.84-0.07,1.26-0.1h0.18c0.43-0.03,0.86-0.03,1.3-0.03c0.33,0,0.66,0,0.99,0.01h0.1    c7.11,0.26,13.81,3,19.03,7.75c0.34,0.32,0.68,0.64,1.02,0.98c0.67,0.66,1.3,1.36,1.9,2.08c3.57,4.32,5.85,9.55,6.58,15.13    c0.12,0.93,0.2,1.87,0.23,2.82c0.05,1.3,0.01,2.61-0.11,3.9c-0.04,0.43-0.11,0.86-0.17,1.29c-0.03,0.22-0.04,0.43-0.08,0.64    c-0.51,3.2-1.55,6.31-3.07,9.19c-1.38,2.61-3.16,5.02-5.29,7.15c-2.13,2.12-4.53,3.91-7.14,5.29c-4.61,2.43-9.81,3.61-15.03,3.43    c-7.59-0.28-14.71-3.37-20.04-8.7c-0.33-0.34-0.66-0.68-0.98-1.02c-4.74-5.22-7.47-11.93-7.74-19.09    c-0.01-0.35-0.01-0.7-0.01-1.04c0-0.44,0.01-0.88,0.03-1.31v-0.16c0.03-0.42,0.06-0.84,0.1-1.27c0-0.04,0.01-0.08,0.01-0.12v-0.04    c0.03-0.37,0.08-0.73,0.13-1.11c0.07-0.56,0.17-1.11,0.27-1.65c0.06-0.32,0.13-0.63,0.2-0.94c0.01-0.05,0.02-0.1,0.03-0.14    l0.02-0.11c0.02-0.07,0.04-0.15,0.06-0.23c0.07-0.3,0.15-0.6,0.23-0.88l0.1-0.33c0.02-0.08,0.05-0.16,0.07-0.24    c0.09-0.31,0.18-0.6,0.28-0.9c0.02-0.05,0.03-0.09,0.05-0.14c0.1-0.33,0.23-0.65,0.37-1.04l0.02-0.04    c0.03-0.09,0.07-0.17,0.1-0.26c0.07-0.18,0.14-0.36,0.23-0.58c0.39-0.93,0.83-1.85,1.28-2.68l0.12-0.21    c0.08-0.15,0.16-0.3,0.25-0.45c0.02-0.04,0.04-0.08,0.07-0.12c0.23-0.4,0.47-0.8,0.75-1.22l0.11-0.18    c0.07-0.1,0.14-0.22,0.22-0.32c0.04-0.06,0.08-0.11,0.11-0.17c1.03-1.49,2.21-2.92,3.52-4.23c1.1-1.1,2.31-2.14,3.63-3.1    c0.21-0.15,0.43-0.31,0.59-0.42c0.36-0.24,0.72-0.48,1.08-0.71c0.2-0.12,0.39-0.24,0.59-0.35c0.03-0.02,0.07-0.04,0.1-0.06    c0.47-0.28,1-0.57,1.64-0.9c0.15-0.08,0.3-0.15,0.45-0.22c0.05-0.02,0.1-0.05,0.15-0.07c0.43-0.2,0.85-0.4,1.28-0.57    c0.11-0.05,0.19-0.08,0.3-0.13c0.1-0.04,0.2-0.08,0.3-0.12l0.19-0.07c0.45-0.18,0.9-0.34,1.34-0.49c0.26-0.09,0.53-0.17,0.79-0.25    C279.48,207.17,279.54,207.15,279.6,207.13z M226.21,212.86c-17.13-17.13-20.54-35.85-8.69-47.69c4.65-4.65,10.44-7.06,16.89-7.06    c1,0,2.03,0.06,3.06,0.18c8.99,1.02,18.58,6.4,27.74,15.56c5.77,5.77,10.61,12.3,14.03,18.95c-0.37,0.07-0.74,0.16-1.12,0.25    c-0.6,0.13-1.2,0.28-1.8,0.45c-0.23,0.06-0.47,0.13-0.7,0.21c-0.04,0.01-0.08,0.02-0.12,0.03l-0.01,0.01    c-0.47,0.13-0.92,0.27-1.33,0.42c-0.02,0-0.03,0-0.04,0.01c-0.01,0-0.02,0.01-0.03,0.01c-0.02,0-0.04,0.01-0.06,0.02    c-0.68,0.23-1.28,0.45-1.83,0.67l-0.05,0.02c-0.35,0.13-0.7,0.26-1.03,0.41c-0.6,0.25-1.23,0.53-1.91,0.86    c-0.27,0.12-0.56,0.26-0.9,0.43c-0.67,0.35-1.56,0.81-2.49,1.36c-0.08,0.05-0.16,0.1-0.25,0.15c-0.21,0.13-0.42,0.26-0.66,0.41    c-0.54,0.33-1.06,0.68-1.63,1.07c-0.28,0.19-0.57,0.4-0.84,0.59l-9.98-9.97c-2.73-2.73-7.16-2.73-9.9,0    c-2.73,2.73-2.73,7.17,0,9.9l9.99,9.98c-0.19,0.27-0.39,0.53-0.58,0.8c-0.2,0.28-0.39,0.57-0.57,0.85l-0.07,0.11    c-0.43,0.65-0.84,1.31-1.22,1.98c-0.14,0.25-0.28,0.5-0.42,0.75l-0.12,0.21c-0.7,1.3-1.35,2.66-1.92,4.01    c-0.12,0.28-0.23,0.57-0.34,0.85c-0.02,0.05-0.04,0.09-0.06,0.14c-0.06,0.17-0.13,0.35-0.18,0.48c-0.19,0.51-0.38,1.03-0.55,1.55    c-0.15,0.45-0.3,0.91-0.43,1.37v0.01c-0.02,0.05-0.04,0.11-0.05,0.16l-0.18,0.62c-0.01,0.02-0.03,0.1-0.03,0.12    c-0.11,0.38-0.21,0.76-0.3,1.13c-0.02,0.09-0.04,0.19-0.07,0.28c-0.04,0.17-0.08,0.34-0.12,0.52c-0.06,0.28-0.12,0.56-0.18,0.85    C238.52,223.46,231.98,218.63,226.21,212.86z"/>
<path class="st6" d="M163.49,79.03c0,0.45-0.05,0.91-0.14,1.36c-0.09,0.45-0.22,0.89-0.4,1.31c-0.17,0.43-0.39,0.83-0.64,1.21    c-0.26,0.39-0.55,0.74-0.87,1.07c-0.33,0.32-0.68,0.61-1.07,0.87c-0.38,0.25-0.78,0.46-1.2,0.64c-0.43,0.17-0.87,0.31-1.31,0.4    c-0.46,0.09-0.92,0.14-1.37,0.14c-0.46,0-0.92-0.05-1.37-0.14c-0.45-0.09-0.89-0.23-1.31-0.4c-0.42-0.18-0.83-0.39-1.21-0.64    c-0.38-0.26-0.74-0.55-1.06-0.87c-0.32-0.33-0.62-0.68-0.87-1.07c-0.25-0.38-0.47-0.78-0.65-1.21c-0.17-0.42-0.3-0.86-0.39-1.31    c-0.07-0.31-0.1-0.63-0.12-0.95c-0.01-0.14-0.02-0.27-0.02-0.41v-0.09c0-0.17,0.02-0.34,0.03-0.51c0.02-0.26,0.06-0.51,0.11-0.77    c0.09-0.45,0.22-0.89,0.39-1.31c0.18-0.42,0.4-0.83,0.65-1.21c0.25-0.38,0.55-0.74,0.87-1.06c0.32-0.33,0.68-0.62,1.06-0.87    c0.38-0.26,0.79-0.47,1.21-0.65c0.42-0.17,0.86-0.31,1.31-0.4c0.9-0.18,1.83-0.18,2.74,0c0.44,0.09,0.88,0.23,1.31,0.4    c0.42,0.18,0.82,0.39,1.2,0.65c0.39,0.25,0.74,0.54,1.07,0.87c0.95,0.95,1.58,2.16,1.86,3.47c0.04,0.17,0.09,0.33,0.11,0.5    c0.03,0.16,0.05,0.33,0.06,0.5C163.48,78.71,163.49,78.87,163.49,79.03z"/>
<path class="st2" d="M285.7,287.29l-14.76,15.15c-0.12-0.11-0.24-0.23-0.37-0.33c-0.13-0.11-0.28-0.19-0.42-0.29    c-2.73-1.93-6.53-1.71-8.98,0.74l-87.44,87.45c-0.34-0.31-0.68-0.62-1.01-0.93c-0.65-0.61-1.3-1.22-1.95-1.83    c-1.37-1.28-2.72-2.57-4.07-3.85c-0.68-0.65-1.36-1.31-2.04-1.96c-1.38-1.33-2.75-2.66-4.11-3.99c-0.56-0.55-1.13-1.09-1.68-1.64    c-1.88-1.85-3.74-3.7-5.57-5.54c-0.29-0.29-0.57-0.58-0.86-0.88c-1.54-1.56-3.07-3.12-4.58-4.68c-0.59-0.61-1.18-1.23-1.77-1.84    c-1.21-1.26-2.4-2.52-3.58-3.77c-0.62-0.65-1.22-1.3-1.83-1.94c-1.21-1.3-2.41-2.6-3.6-3.9c-0.5-0.54-1.01-1.09-1.5-1.63    c-0.19-0.2-0.37-0.41-0.55-0.61l109.15-109.16c0.04,0.02,0.07,0.03,0.11,0.05c0.01,0,0.02,0.01,0.04,0.01    c0.13,0.06,0.26,0.11,0.39,0.16c0.04,0.32,0.1,0.63,0.15,0.94c0.04,0.2,0.07,0.41,0.1,0.62c0.11,0.57,0.22,1.14,0.35,1.71    c0.01,0.06,0.02,0.12,0.04,0.17c0.14,0.63,0.3,1.25,0.47,1.87c0.05,0.18,0.11,0.37,0.16,0.55c0.12,0.43,0.25,0.86,0.39,1.28    c0.07,0.23,0.15,0.45,0.22,0.68c0.13,0.38,0.27,0.76,0.41,1.14c0.08,0.23,0.17,0.46,0.26,0.69c0.15,0.38,0.3,0.75,0.45,1.11    c0.1,0.23,0.19,0.45,0.29,0.67c0.17,0.39,0.35,0.78,0.54,1.16c0.09,0.19,0.18,0.39,0.27,0.58c0.26,0.52,0.53,1.04,0.81,1.56    c0.03,0.04,0.05,0.09,0.07,0.13c0.31,0.55,0.63,1.1,0.96,1.64c0.11,0.18,0.22,0.35,0.33,0.52c0.23,0.37,0.46,0.73,0.71,1.1    c0.13,0.2,0.27,0.4,0.41,0.6c0.23,0.32,0.46,0.65,0.7,0.97c0.15,0.21,0.3,0.41,0.46,0.61c0.24,0.32,0.49,0.63,0.74,0.94    c0.15,0.19,0.31,0.39,0.47,0.58c0.28,0.33,0.56,0.65,0.85,0.98c0.14,0.16,0.28,0.32,0.42,0.47c0.44,0.48,0.88,0.95,1.34,1.41    c0.46,0.46,0.93,0.9,1.4,1.34c0.16,0.14,0.31,0.27,0.47,0.41c0.32,0.29,0.66,0.58,0.99,0.86c0.19,0.16,0.37,0.3,0.56,0.45    c0.32,0.26,0.64,0.52,0.96,0.76c0.2,0.15,0.39,0.3,0.59,0.45c0.33,0.24,0.66,0.48,1,0.71c0.19,0.14,0.38,0.27,0.58,0.4    c0.37,0.25,0.75,0.5,1.13,0.74c0.16,0.09,0.32,0.2,0.48,0.29c1.09,0.67,2.21,1.29,3.35,1.86c0.17,0.08,0.35,0.16,0.52,0.24    c0.4,0.19,0.81,0.38,1.22,0.57c0.21,0.09,0.41,0.17,0.62,0.26c0.39,0.16,0.78,0.32,1.17,0.48c0.21,0.08,0.43,0.16,0.64,0.24    c0.4,0.15,0.8,0.29,1.2,0.43c0.21,0.07,0.42,0.14,0.62,0.21c0.45,0.14,0.91,0.28,1.36,0.41c0.16,0.04,0.32,0.09,0.48,0.14    c0.63,0.17,1.26,0.33,1.89,0.47c0.01,0,0.02,0.01,0.03,0.01c0.61,0.14,1.23,0.26,1.85,0.37c0.19,0.04,0.39,0.07,0.58,0.1    c0.32,0.05,0.64,0.11,0.96,0.16c0.07,0.16,0.15,0.33,0.22,0.49c0.3,0.73,0.63,1.46,0.96,2.18c0.14,0.32,0.28,0.64,0.43,0.95    c0.49,1.04,1,2.07,1.54,3.09c0.1,0.18,0.2,0.37,0.3,0.55c0.08,0.15,0.16,0.3,0.25,0.46C285.52,286.99,285.61,287.14,285.7,287.29z    "/>
</g>
</g>
</svg>